<svg width="132" height="148" viewBox="0 0 132 148" fill="none" xmlns="http://www.w3.org/2000/svg">
<path d="M124 0C128.418 1.28851e-07 132 3.58172 132 8V140C132 144.418 128.418 148 124 148H8C3.58172 148 0 144.418 0 140V8C2.19047e-06 3.58172 3.58172 1.28856e-07 8 0H124ZM100 110C95.5817 110 92 113.582 92 118V146H122C126.418 146 130 142.418 130 138V110H100ZM26 97C23.7909 97 22 98.7909 22 101C22 103.209 23.7909 105 26 105H107C109.209 105 111 103.209 111 101C111 98.7909 109.209 97 107 97H26ZM26 66C23.7909 66 22 67.7909 22 70C22 72.2091 23.7909 74 26 74H107C109.209 74 111 72.2091 111 70C111 67.7909 109.209 66 107 66H26ZM26 35C23.7909 35 22 36.7909 22 39C22 41.2091 23.7909 43 26 43H107C109.209 43 111 41.2091 111 39C111 36.7909 109.209 35 107 35H26Z" fill="#D9D9D9"/>
</svg>
