<svg width="210" height="219" viewBox="0 0 210 219" fill="none" xmlns="http://www.w3.org/2000/svg">
<path d="M202 0C206.418 0 210 3.58172 210 8V211C210 215.418 206.418 219 202 219H8C3.58172 219 0 215.418 0 211V8C0 3.58172 3.58172 1.6509e-07 8 0H202ZM27 24C22.5817 24 19 27.5817 19 32V188C19 192.418 22.5817 196 27 196H183C187.418 196 191 192.418 191 188V32C191 27.5817 187.418 24 183 24H27ZM53.7314 161.366H56.6582V160.391H57.6338V159.415H58.6094V151.609H63.4873V160.391H62.5117V161.366H61.5361V162.342H60.5605V163.317H59.585V164.293H60.5605V165.269H61.5361V166.244H62.5117V167.22H63.4873V176H58.6094V168.195H57.6338V167.22H56.6582V166.244H53.7314V176H48.8535V151.609H53.7314V161.366ZM77.1641 152.585H78.1396V153.561H79.1152V154.536H80.0908V155.512H81.0664V156.488H82.042V157.464H83.0176V176H78.1396V170.146H72.2861V176H67.4082V157.464H68.3838V156.488H69.3594V155.512H70.335V154.536H71.3105V153.561H72.2861V152.585H73.2617V151.609H77.1641V152.585ZM101.573 156.488H96.6953V176H91.8174V156.488H86.9395V151.609H101.573V156.488ZM115.25 152.585H116.226V153.561H117.201V154.536H118.177V155.512H119.152V156.488H120.128V157.464H121.104V176H116.226V170.146H110.372V176H105.494V157.464H106.47V156.488H107.445V155.512H108.421V154.536H109.396V153.561H110.372V152.585H111.348V151.609H115.25V152.585ZM129.903 161.366H132.83V160.391H133.806V159.415H134.781V151.609H139.659V160.391H138.684V161.366H137.708V162.342H136.732V163.317H135.757V164.293H136.732V165.269H137.708V166.244H138.684V167.22H139.659V176H134.781V168.195H133.806V167.22H132.83V166.244H129.903V176H125.025V151.609H129.903V161.366ZM148.458 170.146H149.434V171.122H154.312V170.146H155.287V151.609H160.165V172.098H159.189V174.049H158.214V175.024H156.263V176H147.482V175.024H145.531V174.049H144.556V172.098H143.58V151.609H148.458V170.146ZM74.2373 158.439H73.2617V159.415H72.2861V165.269H78.1396V159.415H77.1641V158.439H76.1885V157.464H74.2373V158.439ZM112.323 158.439H111.348V159.415H110.372V165.269H116.226V159.415H115.25V158.439H114.274V157.464H112.323V158.439ZM72 121H54V68H72V121ZM156 121H138V68H156V121Z" fill="#D9D9D9"/>
</svg>
