<svg width="132" height="149" viewBox="0 0 132 149" fill="none" xmlns="http://www.w3.org/2000/svg">
<path d="M124 0C128.418 1.28851e-07 132 3.58172 132 8V141C132 145.418 128.418 149 124 149H8C3.58172 149 2.01337e-08 145.418 0 141V8C0 3.58172 3.58172 1.28851e-07 8 0H124ZM18 118C18 122.418 21.5817 126 26 126V126C30.4183 126 34 122.418 34 118V118C34 113.582 30.4183 110 26 110V110C21.5817 110 18 113.582 18 118V118ZM47 116C44.2386 116 42 118.239 42 121V121C42 123.761 44.2386 126 47 126H109C111.761 126 114 123.761 114 121V121C114 118.239 111.761 116 109 116H47ZM18 90C18 94.4183 21.5817 98 26 98V98C30.4183 98 34 94.4183 34 90V90C34 85.5817 30.4183 82 26 82V82C21.5817 82 18 85.5817 18 90V90ZM42 92C42 94.7614 44.2386 97 47 97H109C111.761 97 114 94.7614 114 92V92C114 89.2386 111.761 87 109 87H47C44.2386 87 42 89.2386 42 92V92ZM18 59C18 63.4183 21.5817 67 26 67V67C30.4183 67 34 63.4183 34 59V59C34 54.5817 30.4183 51 26 51V51C21.5817 51 18 54.5817 18 59V59ZM42 62C42 64.7614 44.2386 67 47 67H109C111.761 67 114 64.7614 114 62V62C114 59.2386 111.761 57 109 57H47C44.2386 57 42 59.2386 42 62V62ZM18 28C18 32.4183 21.5817 36 26 36V36C30.4183 36 34 32.4183 34 28V28C34 23.5817 30.4183 20 26 20V20C21.5817 20 18 23.5817 18 28V28ZM42 31C42 33.7614 44.2386 36 47 36H109C111.761 36 114 33.7614 114 31V31C114 28.2386 111.761 26 109 26H47C44.2386 26 42 28.2386 42 31V31Z" fill="#F6F6F6"/>
</svg>
